<?xml version="1.0" encoding="UTF-8"?>
<svg version="1.1" xmlns="http://www.w3.org/2000/svg" width="500" height="500">
<path d="M0 0 C165 0 330 0 500 0 C500 165 500 330 500 500 C335 500 170 500 0 500 C0 335 0 170 0 0 Z " fill="#E5E5DC" transform="translate(0,0)"/>
<path d="M0 0 C6.93 0 13.86 0 21 0 C21 35.64 21 71.28 21 108 C13.74 108 6.48 108 -1 108 C-1.33 106.02 -1.66 104.04 -2 102 C-2.556875 102.78375 -3.11375 103.5675 -3.6875 104.375 C-7.19178756 108.35283993 -9.64157474 108.89044958 -14.875 109.3125 C-20.32612988 109.14793759 -24.51882569 107.56123778 -28.3125 103.5625 C-32.29284081 97.51827877 -33.10760955 92.18213183 -33.17700195 84.95385742 C-33.18983719 83.78211472 -33.20267242 82.61037201 -33.21589661 81.40312195 C-33.22328354 80.14989639 -33.23067047 78.89667084 -33.23828125 77.60546875 C-33.246353 76.3035408 -33.25442474 75.00161285 -33.26274109 73.66023254 C-33.27771171 70.90915055 -33.28757692 68.15809382 -33.29516602 65.40698242 C-33.30622249 61.90349966 -33.34063649 58.40065333 -33.38033772 54.89739513 C-33.41294671 51.52928012 -33.41729317 48.16122928 -33.42578125 44.79296875 C-33.45204338 42.92223946 -33.45204338 42.92223946 -33.47883606 41.01371765 C-33.4586921 32.88058488 -32.549281 26.21334003 -27.18359375 19.84375 C-26.60738281 19.4003125 -26.03117188 18.956875 -25.4375 18.5 C-24.85871094 18.0359375 -24.27992188 17.571875 -23.68359375 17.09375 C-20.66897427 15.13529651 -17.82235579 14.76825942 -14.3125 14.625 C-13.10013672 14.55152344 -13.10013672 14.55152344 -11.86328125 14.4765625 C-9 15 -9 15 -1 20 C-0.67 13.4 -0.34 6.8 0 0 Z " fill="#020202" transform="translate(243,192)"/>
<path d="M0 0 C1.16660156 0.04833984 2.33320313 0.09667969 3.53515625 0.14648438 C5.37013672 0.2305957 5.37013672 0.2305957 7.2421875 0.31640625 C9.08876953 0.3947168 9.08876953 0.3947168 10.97265625 0.47460938 C14.02107338 0.60458065 17.069187 0.73955644 20.1171875 0.87890625 C20.6121875 4.34390625 20.6121875 4.34390625 21.1171875 7.87890625 C21.8596875 6.93015625 22.6021875 5.98140625 23.3671875 5.00390625 C25.43105342 2.55270415 26.97471665 0.83117014 30.1171875 -0.12109375 C32.0971875 -0.12109375 34.0771875 -0.12109375 36.1171875 -0.12109375 C36.1171875 6.14890625 36.1171875 12.41890625 36.1171875 18.87890625 C33.3828125 19.07421875 30.6484375 19.26953125 27.9140625 19.46484375 C24.80134548 19.77732365 24.80134548 19.77732365 21.1171875 21.87890625 C20.7871875 45.30890625 20.4571875 68.73890625 20.1171875 92.87890625 C12.8571875 92.87890625 5.5971875 92.87890625 -1.8828125 92.87890625 C-1.8828125 68.45890625 -1.8828125 44.03890625 -1.8828125 18.87890625 C-6.5028125 19.53890625 -11.1228125 20.19890625 -15.8828125 20.87890625 C-15.8828125 44.63890625 -15.8828125 68.39890625 -15.8828125 92.87890625 C-23.1428125 92.87890625 -30.4028125 92.87890625 -37.8828125 92.87890625 C-37.8828125 62.51890625 -37.8828125 32.15890625 -37.8828125 0.87890625 C-30.6228125 0.87890625 -23.3628125 0.87890625 -15.8828125 0.87890625 C-15.5528125 2.85890625 -15.2228125 4.83890625 -14.8828125 6.87890625 C-14.40070313 6.45738281 -13.91859375 6.03585938 -13.421875 5.6015625 C-12.79023438 5.05371094 -12.15859375 4.50585938 -11.5078125 3.94140625 C-10.56808594 3.12349609 -10.56808594 3.12349609 -9.609375 2.2890625 C-6.31425914 -0.40219729 -4.18294791 -0.18275015 0 0 Z " fill="#030303" transform="translate(358.8828125,207.12109375)"/>
<path d="M0 0 C5.74396133 2.49434999 9.7130013 5.78430693 12.05612183 11.63882446 C13.12373281 15.44061587 13.26677967 18.93068355 13.22705078 22.84130859 C13.22734283 23.60296326 13.22763489 24.36461792 13.22793579 25.14935303 C13.22655031 27.6491666 13.21102628 30.14867644 13.1953125 32.6484375 C13.19157958 34.3886397 13.18873393 36.12884401 13.18673706 37.86904907 C13.17912254 42.43603376 13.15949287 47.00289005 13.1373291 51.56982422 C13.1168236 56.2353339 13.1077253 60.90086444 13.09765625 65.56640625 C13.07624482 74.71100282 13.04108055 83.85547061 13 93 C5.74 93 -1.52 93 -9 93 C-9.33 68.25 -9.66 43.5 -10 18 C-11.98 18 -13.96 18 -16 18 C-18.45531647 21.68297471 -18.2728067 23.55303961 -18.31884766 27.94995117 C-18.32889328 28.65264633 -18.3389389 29.35534149 -18.34928894 30.07933044 C-18.38016427 32.40053494 -18.39716787 34.72162387 -18.4140625 37.04296875 C-18.43277068 38.65294899 -18.45234383 40.26291939 -18.4727478 41.87287903 C-18.52411211 46.10934655 -18.56371473 50.34584588 -18.60089111 54.5824585 C-18.64090388 58.9059641 -18.69200864 63.22933692 -18.7421875 67.55273438 C-18.83899774 76.03507232 -18.92236099 84.51746489 -19 93 C-26.26 93 -33.52 93 -41 93 C-41 62.64 -41 32.28 -41 1 C-33.74 1 -26.48 1 -19 1 C-18.67 3.31 -18.34 5.62 -18 8 C-17.2575 7.05125 -16.515 6.1025 -15.75 5.125 C-11.57570736 -0.20881837 -6.47832895 -1.05140093 0 0 Z " fill="#030303" transform="translate(196,207)"/>
<path d="M0 0 C6.35398707 3.83517546 9.17155802 8.90995128 11 16 C11.45789871 21.2248319 11.37933918 26.38561864 11.25 31.625 C11.1675 36.36875 11.085 41.1125 11 46 C0.44 46 -10.12 46 -21 46 C-20.87625 50.08375 -20.7525 54.1675 -20.625 58.375 C-20.59100098 59.66196777 -20.55700195 60.94893555 -20.52197266 62.27490234 C-20.4863623 63.28504395 -20.45075195 64.29518555 -20.4140625 65.3359375 C-20.36693115 66.89127197 -20.36693115 66.89127197 -20.31884766 68.47802734 C-20.24045528 71.16809835 -20.24045528 71.16809835 -18 73 C-15.41645782 73.16687448 -15.41645782 73.16687448 -13 73 C-11.41517429 69.83034858 -11.62147177 66.36255459 -11.4375 62.875 C-11.2209375 58.976875 -11.2209375 58.976875 -11 55 C-3.74 55 3.52 55 11 55 C11.2374474 66.39747522 11.10675632 77.54428618 2.8125 86.3125 C-5.9147989 91.54887934 -15.05818016 92.02915321 -25 91 C-31.88699862 89.1699503 -35.97413939 85.65268925 -39.84375 79.76953125 C-43.1426314 71.86781871 -43.32813145 63.4475581 -43.37109375 55 C-43.38463646 53.32550781 -43.38463646 53.32550781 -43.39845276 51.6171875 C-43.41287741 49.2708603 -43.42182246 46.9244936 -43.42553711 44.578125 C-43.43746749 41.00972527 -43.48676193 37.44303774 -43.53710938 33.875 C-43.54657184 31.58334168 -43.55380772 29.29167286 -43.55859375 27 C-43.57812607 25.94554687 -43.59765839 24.89109375 -43.61778259 23.8046875 C-43.57380961 16.51136501 -42.00339592 11.13544228 -38 5 C-35.75390625 2.78125 -35.75390625 2.78125 -33.5625 1.5 C-32.84191406 1.0565625 -32.12132813 0.613125 -31.37890625 0.15625 C-21.80385518 -4.49763361 -9.59090999 -5.02471977 0 0 Z " fill="#020202" transform="translate(143,210)"/>
<path d="M0 0 C4.57062907 3.79264965 7.89889205 8.09308663 9 14 C9.08220526 16.38943295 9.10745472 18.78104847 9.09765625 21.171875 C9.09515869 22.4206543 9.09266113 23.66943359 9.09008789 24.95605469 C9.08098389 26.53805664 9.07187988 28.12005859 9.0625 29.75 C9.041875 34.7825 9.02125 39.815 9 45 C-1.56 45 -12.12 45 -23 45 C-22.87625 48.7125 -22.7525 52.425 -22.625 56.25 C-22.59100098 57.4143457 -22.55700195 58.57869141 -22.52197266 59.77832031 C-22.4863623 60.70225586 -22.45075195 61.62619141 -22.4140625 62.578125 C-22.36693115 63.99206543 -22.36693115 63.99206543 -22.31884766 65.43457031 C-21.99399023 68.04835429 -21.32323838 69.74353034 -20 72 C-17.58380177 72.25030977 -17.58380177 72.25030977 -15 72 C-12.5966752 68.39501281 -12.56286576 65.48872908 -12.375 61.3125 C-12.25125 58.899375 -12.1275 56.48625 -12 54 C-5.07 54 1.86 54 9 54 C9.51766056 74.53386872 9.51766056 74.53386872 3.5 82.8125 C-2.44558693 89.06336157 -10.32640747 90.24196954 -18.625 90.5 C-26.76722281 90.2437473 -32.70739964 88.77613469 -38.375 82.75 C-44.55446578 75.45028019 -44.45571525 66.87237374 -44.43359375 57.8125 C-44.4388356 56.55542236 -44.44407745 55.29834473 -44.44947815 54.00317383 C-44.45588231 51.3536816 -44.45603494 48.70505697 -44.44604492 46.05566406 C-44.43454864 42.67982748 -44.45479647 39.305036 -44.48396206 35.92933655 C-44.50683477 32.68205346 -44.49985297 29.43484467 -44.49609375 26.1875 C-44.50732773 24.98520752 -44.51856171 23.78291504 -44.53013611 22.54418945 C-44.46481468 14.64250502 -43.4701139 9.29753766 -38.39453125 3.01171875 C-27.68030152 -5.95648836 -12.13120466 -7.10344304 0 0 Z " fill="#010101" transform="translate(310,211)"/>
<path d="M0 0 C0.33 0 0.66 0 1 0 C1 30.36 1 60.72 1 92 C0.67 92 0.34 92 0 92 C-1.14984709 67.93883792 -1.14984709 67.93883792 -1 57 C-7.93 57 -14.86 57 -22 57 C-21.88183869 61.75687746 -21.88183869 61.75687746 -21.72973633 66.51269531 C-21.69090829 69.61726824 -21.84173443 71.71402733 -23.35546875 74.44921875 C-25 76 -25 76 -27.5 76.5625 C-30 76 -30 76 -31.63793945 73.80981445 C-33.13171098 70.72829152 -33.34990791 68.87783849 -33.29296875 65.48046875 C-33.28547607 64.55903076 -33.2779834 63.63759277 -33.27026367 62.68823242 C-33.24295166 61.53299072 -33.21563965 60.37774902 -33.1875 59.1875 C-33.125625 55.495625 -33.06375 51.80375 -33 48 C-22.44 48 -11.88 48 -1 48 C-1.020625 43.7925 -1.04125 39.585 -1.0625 35.25 C-1.0907968 23.46748988 -0.75849331 11.75664635 0 0 Z " fill="#C9C9C1" transform="translate(320,208)"/>
<path d="M0 0 C2.4375 0.8125 2.4375 0.8125 4.4375 2.8125 C4.69819641 5.08287048 4.69819641 5.08287048 4.7121582 7.94897461 C4.72169022 9.02026108 4.73122223 10.09154755 4.74104309 11.19529724 C4.74013168 12.35674759 4.73922028 13.51819794 4.73828125 14.71484375 C4.74256638 15.90348526 4.7468515 17.09212677 4.75126648 18.31678772 C4.75701819 20.83447634 4.75750389 23.35218158 4.75317383 25.86987305 C4.75001587 29.7305934 4.77345682 33.59054648 4.79882812 37.45117188 C4.80110115 39.8932282 4.8018046 42.33528659 4.80078125 44.77734375 C4.809991 45.93676987 4.81920074 47.09619598 4.82868958 48.29075623 C4.82246078 49.36519485 4.81623199 50.43963348 4.80981445 51.54663086 C4.81044388 52.49324081 4.8110733 53.43985077 4.8117218 54.41514587 C4.4375 56.8125 4.4375 56.8125 3.0743866 58.64552307 C1.4375 59.8125 1.4375 59.8125 -1.125 59.75 C-3.5625 58.8125 -3.5625 58.8125 -4.69767761 57.07765198 C-5.70009806 54.4521017 -5.82287326 52.44108087 -5.8371582 49.63256836 C-5.84669022 48.60147446 -5.85622223 47.57038055 -5.86604309 46.50804138 C-5.86513168 45.40066116 -5.86422028 44.29328094 -5.86328125 43.15234375 C-5.86756638 42.01092422 -5.8718515 40.8695047 -5.87626648 39.6934967 C-5.88200703 37.28191796 -5.88251207 34.87032191 -5.87817383 32.45874023 C-5.87500908 28.76060669 -5.89849406 25.06326929 -5.92382812 21.36523438 C-5.92610058 19.02343851 -5.92680487 16.68164049 -5.92578125 14.33984375 C-5.934991 13.2304393 -5.94420074 12.12103485 -5.95368958 10.97801208 C-5.94746078 9.95007034 -5.94123199 8.9221286 -5.93481445 7.86303711 C-5.93544388 6.95798935 -5.9360733 6.05294159 -5.9367218 5.12046814 C-5.5625 2.8125 -5.5625 2.8125 -4.1993866 0.98512268 C-2.5625 -0.1875 -2.5625 -0.1875 0 0 Z " fill="#E3E3DA" transform="translate(237.5625,224.1875)"/>
<path d="M0 0 C0.33 0 0.66 0 1 0 C1 30.36 1 60.72 1 92 C0.67 92 0.34 92 0 92 C-0.69953128 80.21900494 -1.2902852 68.75593183 0 57 C-7.26 57 -14.52 57 -22 57 C-21.92108288 62.13070839 -21.92108288 62.13070839 -21.81982422 67.26098633 C-21.79023432 71.06519761 -21.84285446 72.76428169 -24 76 C-26.78406342 76.42831745 -28.31145166 76.48787105 -30.6418457 74.83666992 C-32.55304808 72.25209766 -32.34154232 70.42794556 -32.29296875 67.23828125 C-32.28547607 66.23063721 -32.2779834 65.22299316 -32.27026367 64.18481445 C-32.24295166 62.90695068 -32.21563965 61.62908691 -32.1875 60.3125 C-32.125625 56.249375 -32.06375 52.18625 -32 48 C-21.44 48 -10.88 48 0 48 C-0.185625 43.05 -0.37125 38.1 -0.5625 33 C-0.94261568 21.93639764 -1.17866558 11.02505649 0 0 Z " fill="#DADAD2" transform="translate(154,208)"/>
<path d="M0 0 C3.83019557 1.98602733 7.04532347 4.09064695 9 8 C9.5437498 13.61874795 9.15737699 17.15117105 6 22 C1.94627506 25.81687809 -1.80096972 25.54944467 -7.14453125 25.42578125 C-10 25 -10 25 -13.125 22.6875 C-16.7709592 17.46162514 -18.08446214 14.35494815 -17 8 C-13.10521397 0.89950547 -7.63473341 -1.07016776 0 0 Z " fill="#040404" transform="translate(402,283)"/>
<path d="M0 0 C2.5 0.5 2.5 0.5 4.14453125 1.984375 C6.14939092 5.70520967 5.82178177 9.09759443 5.6875 13.25 C5.67396484 14.04277344 5.66042969 14.83554688 5.64648438 15.65234375 C5.61125223 17.60185564 5.55744821 19.55101626 5.5 21.5 C1.87 21.5 -1.76 21.5 -5.5 21.5 C-5.58107646 18.74940619 -5.64052813 16.00120979 -5.6875 13.25 C-5.71263672 12.47269531 -5.73777344 11.69539062 -5.76367188 10.89453125 C-5.80866721 7.38489533 -5.83311764 5.11823561 -4.14453125 1.984375 C-2.5 0.5 -2.5 0.5 0 0 Z " fill="#D8D8D0" transform="translate(292.5,223.5)"/>
<path d="M0 0 C3 -0.375 3 -0.375 6 0 C8.06723714 3.10085571 8.24497423 3.72931681 8.1953125 7.23046875 C8.18564453 8.43413086 8.18564453 8.43413086 8.17578125 9.66210938 C8.15902344 10.49548828 8.14226562 11.32886719 8.125 12.1875 C8.11597656 13.03248047 8.10695312 13.87746094 8.09765625 14.74804688 C8.07410703 16.83215243 8.03823647 18.91611217 8 21 C4.7 21 1.4 21 -2 21 C-2.05390357 18.06225537 -2.0936255 15.12549768 -2.125 12.1875 C-2.14175781 11.35412109 -2.15851563 10.52074219 -2.17578125 9.66210938 C-2.18222656 8.85966797 -2.18867187 8.05722656 -2.1953125 7.23046875 C-2.20578613 6.49207764 -2.21625977 5.75368652 -2.22705078 4.99291992 C-2 3 -2 3 0 0 Z " fill="#E2E2D9" transform="translate(124,224)"/>
</svg>
